<svg height="512" viewBox="0 0 64 64" width="512" xmlns="http://www.w3.org/2000/svg"><g id="Flat"><rect fill="#2980b9" height="34" rx="1" width="14" x="45" y="28"/><rect fill="#9fe0f6" height="6" rx="1" width="6" x="50" y="32"/><rect fill="#9fe0f6" height="6" rx="1" width="6" x="50" y="40"/><rect fill="#2980b9" height="34" rx="1" width="14" x="5" y="28"/><rect fill="#9fe0f6" height="6" rx="1" width="6" x="8" y="32"/><rect fill="#9fe0f6" height="6" rx="1" width="6" x="8" y="40"/><rect fill="#3498db" height="45" rx="1" width="30" x="17" y="17"/><g fill="#9fe0f6"><rect height="6" rx="1" width="6" x="20" y="21"/><rect height="6" rx="1" width="6" x="29" y="21"/><rect height="6" rx="1" width="6" x="38" y="21"/><rect height="6" rx="1" width="6" x="20" y="29"/><rect height="6" rx="1" width="6" x="29" y="29"/><rect height="6" rx="1" width="6" x="38" y="29"/><rect height="6" rx="1" width="6" x="20" y="37"/><rect height="6" rx="1" width="6" x="29" y="37"/><rect height="6" rx="1" width="6" x="38" y="37"/></g><path d="m40 47h-16a1 1 0 0 1 0-2h16a1 1 0 0 1 0 2z" fill="#2980b9"/><path d="m26 46h12v15h-12z" fill="#9fe0f6"/><path d="m38 45h-12a1 1 0 0 0 -1 1v15a1 1 0 0 0 1 1h12a1 1 0 0 0 1-1v-15a1 1 0 0 0 -1-1zm-11 2h4v13h-4zm10 13h-4v-13h4z" fill="#2980b9"/><path d="m61 62h-58a1 1 0 0 1 0-2h58a1 1 0 0 1 0 2z" fill="#333"/><path d="m35.11 14.578a1.007 1.007 0 0 1 -.351-.064 7.847 7.847 0 0 0 -5.518 0 1 1 0 0 1 -.7-1.873 9.855 9.855 0 0 1 6.922 0 1 1 0 0 1 -.351 1.937z" fill="#ffcc5c"/><path d="m37.979 10.477a1 1 0 0 1 -.459-.112 12 12 0 0 0 -11.04 0 1 1 0 1 1 -.92-1.775 14 14 0 0 1 12.88 0 1 1 0 0 1 -.461 1.887z" fill="#f7931e"/><path d="m40.789 6.468a1 1 0 0 1 -.518-.145 15.892 15.892 0 0 0 -16.542 0 1 1 0 0 1 -1.038-1.71 17.888 17.888 0 0 1 18.618 0 1 1 0 0 1 -.52 1.855z" fill="#f15a24"/></g></svg>