<svg id="Layer_1" enable-background="new 0 0 512 512" height="512" viewBox="0 0 512 512" width="512" xmlns="http://www.w3.org/2000/svg"><g><path d="m408.126 512h-304.252c-17.051 0-30.874-13.823-30.874-30.874v-419.347c0-17.051 13.823-30.874 30.874-30.874h304.252c17.051 0 30.874 13.823 30.874 30.874v419.347c0 17.051-13.823 30.874-30.874 30.874z" fill="#f78e36"/><path d="m408.157 30.905v481.095c17.034 0 30.843-13.837 30.843-30.905v-419.284c0-17.069-13.809-30.906-30.843-30.906z" fill="#f86f1b"/><path d="m103.843 477.095v-411.284c0-2.209 1.791-4 4-4h296.315c2.209 0 4 1.791 4 4v411.284c0 2.209-1.791 4-4 4h-296.315c-2.209 0-4-1.791-4-4z" fill="#f3f3f3"/><path d="m357.988 30.905h-203.976c-3.414 0-6.181-2.767-6.181-6.181v-18.543c0-3.414 2.767-6.181 6.181-6.181h203.976c3.414 0 6.181 2.767 6.181 6.181v18.543c0 3.414-2.767 6.181-6.181 6.181z" fill="#a9dbf5"/><path d="m357.988 0h-30.905c3.414 0 6.181 2.767 6.181 6.181v18.543c0 3.414-2.767 6.181-6.181 6.181h30.905c3.414 0 6.181-2.767 6.181-6.181v-18.543c0-3.414-2.767-6.181-6.181-6.181z" fill="#88c3e0"/><path d="m335.324 23.405c-4.143 0-7.5 3.358-7.5 7.5 0 26.539-21.591 48.13-48.13 48.13h-47.389c-26.539 0-48.13-21.591-48.13-48.13 0-4.142-3.357-7.5-7.5-7.5s-7.5 3.358-7.5 7.5c0 34.81 28.32 63.13 63.13 63.13h47.389c34.81 0 63.13-28.32 63.13-63.13 0-4.142-3.357-7.5-7.5-7.5z" fill="#43809f"/><g><path d="m225.095 438.342h-61.811v-53.569c0-4.552 3.69-8.241 8.241-8.241h45.328c4.552 0 8.241 3.69 8.241 8.241v53.569z" fill="#7be492"/><path d="m216.853 376.531h-22.664v61.811h30.905v-53.569c.001-4.552-3.689-8.242-8.241-8.242z" fill="#45d987"/><path d="m348.716 438.342h-61.811v-84.475c0-4.552 3.69-8.241 8.241-8.241h45.328c4.552 0 8.241 3.69 8.241 8.241v84.475z" fill="#f78e36"/><path d="m340.475 345.626h-22.664v92.716h30.905v-84.475c0-4.551-3.69-8.241-8.241-8.241z" fill="#f86f1b"/><path d="m286.905 438.342h-61.811v-125.682c0-4.552 3.69-8.241 8.241-8.241h45.328c4.552 0 8.241 3.69 8.241 8.241v125.682z" fill="#29cef6"/><path d="m278.664 304.419h-22.664v133.924h30.905v-125.683c0-4.552-3.689-8.241-8.241-8.241z" fill="#22b5ed"/></g><path d="m238.487 188.008c0 26.177-21.212 47.388-47.388 47.388s-47.388-21.212-47.388-47.388c0-26.177 21.212-47.388 47.388-47.388v47.388z" fill="#ffc328"/><path d="m238.487 188.008h-43.388c-2.209 0-4-1.791-4-4v-43.388c26.176 0 47.388 21.211 47.388 47.388z" fill="#43809f"/><path d="m357.483 218.141c-8.695 10.539-21.85 17.256-36.582 17.256-26.177 0-47.388-21.212-47.388-47.388 0-26.177 21.212-47.388 47.388-47.388v47.388z" fill="#ffc328"/><g fill="#43809f"><path d="m368.29 188.008c0 11.445-4.059 21.943-10.807 30.133l-35.125-28.933c-.922-.76-1.457-1.892-1.457-3.087v-45.501c26.177 0 47.389 21.211 47.389 47.388z"/><path d="m363 430.842h-214c-4.143 0-7.5 3.358-7.5 7.5s3.357 7.5 7.5 7.5h214c4.143 0 7.5-3.358 7.5-7.5s-3.357-7.5-7.5-7.5z"/></g></g></svg>