<svg id="Capa_1" enable-background="new 0 0 512 512" height="512" viewBox="0 0 512 512" width="512" xmlns="http://www.w3.org/2000/svg"><g><path d="m12.461 300.355c-5.038 0-9.347-3.682-10.044-8.664-.004-.031-.009-.063-.013-.094-1.536-11.065-2.33-22.983-2.399-34.454-.855-141.643 112.671-256.358 254.552-257.139 63.787-.351 122.2 22.589 167.202 60.798 6.675 5.667 2.746 18.551-5.202 19.648-85.624 11.822-151.557 85.181-151.557 173.914v45.992h-252.539z" fill="#44bfd7"/><path d="m215.025 120.657h-130.05c-8.27 0-14.975-6.704-14.975-14.975 0-8.27 6.704-14.975 14.975-14.975h130.05c8.27 0 14.975 6.704 14.975 14.975 0 8.27-6.704 14.975-14.975 14.975zm94.975 54.908c0-8.27-6.704-14.975-14.975-14.975h-130.05c-8.27 0-14.975 6.704-14.975 14.975 0 8.27 6.704 14.975 14.975 14.975h130.05c8.271-.001 14.975-6.705 14.975-14.975zm30-129.783c0-8.27-6.704-14.975-14.975-14.975h-130.05c-8.27 0-14.975 6.704-14.975 14.975 0 8.27 6.704 14.975 14.975 14.975h130.05c8.271 0 14.975-6.704 14.975-14.975z" fill="#7cd2e3"/><path d="m63.745 366.577c-25.353 0-47.529-16.912-54.345-41.291-3.062-10.951-5.411-22.198-6.995-33.689 5.103-12.991 17.773-22.19 32.596-22.19 12.732 0 23.876 6.787 30 16.935 6.124-10.148 17.268-16.935 30-16.935s23.876 6.787 30 16.935c6.124-10.148 17.268-16.935 30-16.935s23.876 6.787 30 16.935c6.124-10.148 17.268-16.935 30-16.935s23.876 6.787 30 16.935c6.248-10.352 17.719-17.207 30.772-16.926 19.137.411 34.227 16.493 34.227 35.604v61.557z" fill="#b9e746"/><path d="m310 345.286v21.291h-276.83c-5.061 0-9.685-2.952-11.718-7.579-5.246-11.939-9.604-24.354-12.991-37.164 6.419-7.446 15.927-12.161 26.539-12.161 12.732 0 23.876 6.787 30 16.934 6.124-10.148 17.268-16.934 30-16.934s23.876 6.787 30 16.934c6.124-10.148 17.268-16.934 30-16.934s23.876 6.787 30 16.934c6.124-10.148 17.268-16.934 30-16.934s23.876 6.787 30 16.934c6.248-10.352 17.719-17.207 30.772-16.926 19.138.411 34.228 16.494 34.228 35.605z" fill="#9bcf1b"/><path d="m21.127 358.258h258.873v130.67c-8.539.733-17.189 1.109-25.935 1.109-82.547 0-151.044-33.385-201.731-86.355-1.739-2.459-9.041-4.965-10.694-7.486-7.857-11.985-14.733-24.669-20.513-37.938z" fill="#ebe1dc"/><path d="m71.529 433.632c-6.849-7.105-13.291-14.604-19.286-22.46-.239-.313 1.245-2.857 1.008-3.171-3.083-4.079-4.078-5.736-6.917-10-.336-.504-4.361-1.297-4.693-1.803-3.407-5.197-6.629-10.525-9.658-15.976h248.017v53.41z" fill="#a2abb8"/><path d="m68.222 430.137h261.778v49.916h-169.411c-21.106 0-41.704-6.741-58.557-19.426-12.159-9.151-23.475-19.36-33.81-30.49z" fill="#c8beb9"/><path d="m270 501.019c0 6.025-4.87 10.891-10.904 10.963-1.03.012-2.062.018-3.096.018-58.119 0-111.714-19.335-154.684-51.913h157.704c6.064 0 10.979 4.907 10.979 10.961v29.971z" fill="#9bcf1b"/><path d="m100 123.293c0-4.135 3.358-7.487 7.5-7.487h225c4.142 0 7.5 3.352 7.5 7.487s-3.358 7.487-7.5 7.487h-225c-4.142.001-7.5-3.352-7.5-7.487zm232.5 124.791h-225c-4.142 0-7.5 3.352-7.5 7.487s3.358 7.487 7.5 7.487h225c4.142 0 7.5-3.352 7.5-7.487s-3.358-7.487-7.5-7.487z" fill="#c8d2dc"/><path d="m259 80.724h160.797c15.226 0 29.633 6.962 39.047 18.928.271.345.541.691.808 1.038 33.162 43.089 52.348 97.201 52.348 155.739 0 140.148-112.997 253.949-253 255.554z" fill="#fff5f5"/><path d="m289.412 509.843c-9.968 1.297-20.117 2.022-30.412 2.14v-431.259h30.412z" fill="#ffe7c0"/><path d="m259.477 100.69c-11.033 0-19.977-8.929-19.977-19.944 0-11.014 8.944-19.943 19.977-19.943h162.284c14.011 11.896 26.722 25.273 37.891 39.887z" fill="#ffd399"/><path d="m189.675 267.867c-43.391 43.318-113.741 43.318-157.132 0s-43.391-113.551 0-156.869 113.741-43.318 157.132 0 43.391 113.55 0 156.869z" fill="#dce6eb"/><path d="m179.2 257.409c-37.605 37.542-98.576 37.542-136.181 0s-37.605-98.411 0-135.953 98.576-37.542 136.181 0 37.605 98.41 0 135.953z" fill="#f44545"/><path d="m179.2 257.409c-12.986 12.965-28.759 21.452-45.394 25.462-16.635-4.01-32.407-12.498-45.394-25.462-37.605-37.542-37.605-98.411 0-135.953 12.986-12.965 28.759-21.452 45.394-25.462 16.635 4.01 32.407 12.498 45.394 25.462 37.605 37.542 37.605 98.41 0 135.953z" fill="#fb5858"/><path d="m512 256.429c0 34.241-6.745 66.909-18.981 96.753-1.76 4.292-5.974 7.073-10.619 7.073h-162.4c-5.523 0-10-4.47-10-9.983v-199.666c0-5.514 4.477-9.983 10-9.983h157.324c4.292 0 9.213 3.617 11.054 7.487 15.783 33.186 23.622 69.14 23.622 108.319z" fill="#754ca0"/><path d="m355 410.171h80.325c10.275 0 15.617 12.243 8.629 19.776l-.177.191c-10.326 11.12-21.631 21.321-33.778 30.466-.509.383-2.613-.896-3.125-.517-3.817 2.83-5.274 3.496-9.25 6.115-.59.389-2.031 4.496-2.625 4.88-11.9 7.696-24.48 14.432-37.631 20.1-1.119.482-2.369-.348-2.369-1.567v-79.444zm85-49.916h-60v-219.632h60z" fill="#865cb2"/><path d="m486.507 367.742h-166.507c-9.649 0-17.5-7.837-17.5-17.471v-199.665c0-9.633 7.851-17.471 17.5-17.471h160.827c2.706 4.896 5.164 9.89 7.551 14.975h-168.378c-1.379 0-2.5 1.119-2.5 2.496v199.665c0 1.377 1.121 2.496 2.5 2.496h173.188c-2.07 5.075-4.299 10.069-6.681 14.975z" fill="#ffd399"/><path d="m342.5 410.171h15v80.954c-4.922 2.124-9.924 4.099-15 5.918zm52.5 60.91c5.129-3.317 10.132-6.813 15-10.478v-50.433h-15z" fill="#ffd399"/><path d="m405.025 430.137h-70.05c-8.27 0-14.975-6.704-14.975-14.975 0-8.27 6.704-14.975 14.975-14.975h70.05c8.27 0 14.975 6.704 14.975 14.975 0 8.271-6.704 14.975-14.975 14.975z" fill="#f44545"/><path d="m443.778 430.137h-68.778c-8.284 0-15-6.704-15-14.975 0-8.27 6.716-14.975 15-14.975h92.69c-7.223 10.581-15.221 20.591-23.912 29.95z" fill="#fb5858"/><path d="m162.064 189.172c0 4.084-3.317 7.395-7.407 7.395h-35.88v36.86c0 4.084-3.316 7.395-7.407 7.395-2.046 0-3.897-.828-5.238-2.166s-2.169-3.187-2.17-5.229v-36.86h-36.921c-2.046 0-3.897-.828-5.238-2.166s-2.169-3.187-2.17-5.229c0-4.084 3.316-7.395 7.407-7.395h36.921v-35.82c0-4.084 3.317-7.395 7.407-7.395 4.092 0 7.407 3.31 7.407 7.395v35.82h35.88c4.093.001 7.409 3.311 7.409 7.395zm27.611-78.174c-19.626-19.594-44.769-30.324-70.437-32.193-4.262-.31-7.869 3.12-7.869 7.386 0 3.884 3.009 7.085 6.889 7.372 22.21 1.641 43.958 10.938 60.941 27.893s26.296 38.667 27.939 60.839c.287 3.873 3.494 6.877 7.384 6.877 4.273 0 7.709-3.601 7.398-7.856-1.87-25.625-12.618-50.725-32.245-70.318zm-79.675 292.684c0-4.135-3.358-7.487-7.5-7.487h-60.862c3.358 5.122 6.895 10.117 10.602 14.975h50.26c4.142-.001 7.5-3.353 7.5-7.488zm112.5-7.488h-65c-4.142 0-7.5 3.352-7.5 7.487s3.358 7.487 7.5 7.487h65c4.142 0 7.5-3.352 7.5-7.487 0-4.134-3.358-7.487-7.5-7.487z" fill="#fff5f5"/></g></svg>