<svg id="Capa_1" enable-background="new 0 0 512 512" height="512" viewBox="0 0 512 512" width="512" xmlns="http://www.w3.org/2000/svg"><g><path d="m479 416v81c0 8.28-6.72 15-15 15s-15-6.72-15-15v-81c0-8.28 6.72-15 15-15s15 6.72 15 15z" fill="#ff7038"/><path d="m479 416v81c0 8.28-6.72 15-15 15v-111c8.28 0 15 6.72 15 15z" fill="#cead29"/><path d="m512 304v112c0 8.28-6.72 15-15 15h-66c-8.28 0-15-6.72-15-15v-112c0-12.62 5.15-24.5 14.49-33.46 18.837-18.051 48.168-18.065 67.02 0 9.34 8.96 14.49 20.84 14.49 33.46z" fill="#96d750"/><path d="m512 304v112c0 8.28-6.72 15-15 15h-33v-174c25.993 0 48 21.003 48 47z" fill="#80c03b"/><path d="m497 482h-137c-8.284 0-15 6.716-15 15s6.716 15 15 15h137c8.284 0 15-6.716 15-15s-6.716-15-15-15z" fill="#05303d"/><path d="m383 15v497h-368c-8.28 0-15-6.72-15-15v-482c0-8.28 6.72-15 15-15h353c8.28 0 15 6.72 15 15z" fill="#0a789b"/><path d="m383 15v497h-191v-512h176c8.28 0 15 6.72 15 15z" fill="#08475e"/><path d="m160 65h-80c-8.284 0-15 6.716-15 15v64c0 8.284 6.716 15 15 15h80c8.284 0 15-6.716 15-15v-64c0-8.284-6.716-15-15-15z" fill="#e0eaef"/><path d="m304 65h-80c-8.284 0-15 6.716-15 15v64c0 8.284 6.716 15 15 15h80c8.284 0 15-6.716 15-15v-64c0-8.284-6.716-15-15-15z" fill="#cce0e5"/><path d="m304 193h-80c-8.284 0-15 6.716-15 15v64c0 8.284 6.716 15 15 15h80c8.284 0 15-6.716 15-15v-64c0-8.284-6.716-15-15-15z" fill="#cce0e5"/><path d="m160 193h-80c-8.284 0-15 6.716-15 15v64c0 8.284 6.716 15 15 15h80c8.284 0 15-6.716 15-15v-64c0-8.284-6.716-15-15-15z" fill="#e0eaef"/><path d="m80 433c-8.28 0-15 6.72-15 15v64h30v-64c0-8.28-6.72-15-15-15z" fill="#e0eaef"/><path d="m304 433c-8.28 0-15 6.72-15 15v64h30v-64c0-8.28-6.72-15-15-15z" fill="#cce0e5"/><path d="m255 400v112h-126v-112c0-34.74 28.26-63 63-63s63 28.26 63 63z" fill="#ffdd54"/><path d="m255 400v112h-63v-175c34.74 0 63 28.26 63 63z" fill="#ffb454"/></g></svg>