<svg id="Layer_1" enable-background="new 0 0 512.005 512.005" height="512" viewBox="0 0 512.005 512.005" width="512" xmlns="http://www.w3.org/2000/svg"><g><g><path d="m170.735 185.739c-3.839 0-7.677-1.464-10.606-4.394l-34.233-34.234c-5.858-5.858-5.858-15.355 0-21.213s15.355-5.857 21.213 0l34.233 34.234c5.858 5.858 5.858 15.355 0 21.213-2.929 2.929-6.768 4.394-10.607 4.394z" fill="#007a9f"/></g><g><path d="m103.502 423.505c-3.839 0-7.678-1.464-10.606-4.394-5.858-5.858-5.858-15.355 0-21.213l67.5-67.5c5.857-5.858 15.355-5.858 21.213 0s5.858 15.355 0 21.213l-67.5 67.5c-2.929 2.93-6.768 4.394-10.607 4.394z" fill="#007a9f"/></g><g><path d="m412.587 427.59c-3.839 0-7.678-1.464-10.606-4.394l-69.638-69.638c-5.858-5.858-5.858-15.355 0-21.213 5.857-5.858 15.355-5.858 21.213 0l69.638 69.638c5.858 5.858 5.858 15.355 0 21.213-2.929 2.93-6.768 4.394-10.607 4.394z" fill="#00607f"/></g><g><path d="m339.47 187.537c-3.839 0-7.677-1.464-10.606-4.394-5.858-5.858-5.858-15.355 0-21.213l36.033-36.032c5.858-5.858 15.355-5.857 21.213 0 5.858 5.858 5.858 15.355 0 21.213l-36.033 36.032c-2.93 2.929-6.769 4.394-10.607 4.394z" fill="#00607f"/></g><g><path d="m131.002 512.005h-116c-8.284 0-15-6.716-15-15v-9c0-40.252 32.748-73 73-73s73 32.748 73 73v9c0 8.284-6.715 15-15 15z" fill="#ff8856"/></g><g><path d="m73.002 445.005c-24.813 0-45-20.187-45-45s20.187-45 45-45 45 20.187 45 45-20.187 45-45 45z" fill="#ffe4c1"/></g><g><path d="m497.002 512.005h-116c-8.284 0-15-6.716-15-15v-9c0-40.252 32.748-73 73-73s73 32.748 73 73v9c0 8.284-6.715 15-15 15z" fill="#00cb75"/></g><g><path d="m439.002 445.005c-24.813 0-45-20.187-45-45s20.187-45 45-45 45 20.187 45 45-20.187 45-45 45z" fill="#fdd1a3"/></g><g><path d="m131.002 157h-116c-8.284 0-15-6.716-15-15v-9c0-40.252 32.748-73 73-73s73 32.748 73 73v9c0 8.284-6.715 15-15 15z" fill="#bee75e"/></g><g><path d="m73.002 90c-24.813 0-45-20.187-45-45s20.187-45 45-45 45 20.187 45 45-20.187 45-45 45z" fill="#ffe4c1"/></g><g><path d="m497.002 157h-116c-8.284 0-15-6.716-15-15v-9c0-40.252 32.748-73 73-73s73 32.748 73 73v9c0 8.284-6.715 15-15 15z" fill="#ff435b"/></g><g><path d="m439.002 90c-24.813 0-45-20.187-45-45s20.187-45 45-45 45 20.187 45 45-20.187 45-45 45z" fill="#fdd1a3"/></g><g><path d="m256.002 329.63c-23.136 0-44.812 44.006-63.368 32.929-36.282-21.659-60.632-61.317-60.632-106.555 0-68.374 55.626-124 124.001-124s124 55.626 124 124c0 45.238-24.35 84.896-60.632 106.555-18.556 11.077-40.233-32.929-63.369-32.929z" fill="#fff4f4"/></g><path d="m256.002 132.004c-.124 0-.247.004-.371.005v197.632c.124-.003.247-.011.371-.011 23.136 0 44.812 44.005 63.368 32.929 36.282-21.659 60.632-61.316 60.632-106.555.001-68.374-55.626-124-124-124z" fill="#f6efea"/><path clip-rule="evenodd" d="m256.002 273.473c-34.995 0-63.364 28.369-63.364 63.364v25.715c18.556 11.077 40.228 17.453 63.364 17.453s44.808-6.376 63.364-17.453v-25.715c0-34.995-28.369-63.364-63.364-63.364z" fill="#7dd5f4" fill-rule="evenodd"/><path clip-rule="evenodd" d="m256.002 273.473c-.124 0-.247.009-.371.009v106.516c.124 0 .247.006.371.006 23.136 0 44.808-6.376 63.364-17.453v-25.715c0-34.994-28.369-63.363-63.364-63.363z" fill="#4793ff" fill-rule="evenodd"/><g><path d="m256.002 337.757c-8.284 0-15-6.716-15-15v-14c0-8.284 6.716-15 15-15s15 6.716 15 15v14c0 8.284-6.715 15-15 15z" fill="#007a9f"/></g><path d="m256.002 293.757c-.125 0-.246.016-.371.019v43.963c.124.003.246.019.371.019 8.284 0 15-6.716 15-15v-14c0-8.286-6.715-15.001-15-15.001z" fill="#00607f"/><g><path d="m255.632 309.593c-29.549 0-53.589-24.04-53.589-53.588s24.04-53.589 53.589-53.589 53.588 24.04 53.588 53.589-24.039 53.588-53.588 53.588z" fill="#ffe4c1"/></g><path d="m255.632 202.416v107.177c29.549 0 53.588-24.04 53.588-53.588s-24.039-53.589-53.588-53.589z" fill="#fdd1a3"/></g></svg>