<svg height="512pt" viewBox="-23 0 512 512" width="512pt" xmlns="http://www.w3.org/2000/svg"><path d="m25.929688 295.28125h415.773437v203.277344h-415.773437zm0 0" fill="#e7e7e7"/><path d="m73.066406 396.5v-101.21875h-47.136718v203.277344h415.773437v-47.804688h-314.382813c-29.960937 0-54.253906-24.289062-54.253906-54.253906zm0 0" fill="#dbdbdb"/><path d="m451.273438 264.425781 15.519531 53.769531c1.011719 3.507813-1.621094 7.011719-5.277344 7.011719h-168.558594v-69.234375h147.082031c5.207032 0 9.792969 3.445313 11.234376 8.453125zm0 0" fill="#f64446"/><path d="m460.9375 297.90625h-167.980469v27.300781h168.558594c3.65625 0 6.289063-3.503906 5.277344-7.011719zm0 0" fill="#e01e31"/><path d="m175.707031 255.972656v69.234375h-172.109375c-2.394531 0-4.117187-2.292969-3.453125-4.59375l16.214844-56.1875c1.445313-5.007812 6.03125-8.453125 11.234375-8.453125zm0 0" fill="#f64446"/><path d="m87.242188 301.109375c-23.515626 0-40.472657-22.542969-33.949219-45.136719h-25.699219c-5.203125 0-9.789062 3.445313-11.234375 8.453125l-16.214844 56.1875c-.664062 2.300781 1.058594 4.59375 3.453125 4.59375h172.109375v-24.097656zm0 0" fill="#e01e31"/><path d="m452.90625 512h-439.480469c-3.859375 0-6.988281-3.128906-6.988281-6.988281v-12.902344c0-3.863281 3.128906-6.992187 6.988281-6.992187h439.480469c3.859375 0 6.988281 3.132812 6.988281 6.992187v12.902344c.003907 3.859375-3.128906 6.988281-6.988281 6.988281zm0 0" fill="#6285a4"/><path d="m37.699219 498.558594c-3.859375 0-6.988281-3.128906-6.988281-6.988282v-6.453124h-17.285157c-3.859375 0-6.988281 3.128906-6.988281 6.992187v12.902344c0 3.859375 3.128906 6.988281 6.988281 6.988281h439.480469c3.859375 0 6.988281-3.128906 6.988281-6.988281v-6.453125zm0 0" fill="#46738e"/><path d="m165.398438 181.496094v330.503906h136.835937v-330.503906zm0 0" fill="#acacac"/><path d="m219.691406 421.902344v-240.40625h-54.289062v330.503906h136.832031v-60.933594h-53.378906c-16.105469 0-29.164063-13.058594-29.164063-29.164062zm0 0" fill="#989a9b"/><path d="m149.609375 196.660156h168.414063c2.644531 0 4.789062-2.144531 4.789062-4.789062v-20.746094c0-2.644531-2.144531-4.789062-4.789062-4.789062h-168.414063c-2.644531 0-4.785156 2.144531-4.785156 4.789062v20.746094c0 2.644531 2.140625 4.789062 4.785156 4.789062zm0 0" fill="#f64446"/><path d="m187.230469 181.496094c-2.644531 0-4.789063-2.140625-4.789063-4.785156v-10.375h-32.832031c-2.644531 0-4.785156 2.144531-4.785156 4.789062v20.746094c0 2.644531 2.140625 4.789062 4.785156 4.789062h168.414063c2.644531 0 4.789062-2.144531 4.789062-4.789062v-10.371094h-135.582031zm0 0" fill="#e01e31"/><g fill="#3dcff3"><path d="m414.808594 352.964844v25.890625c0 .925781-.753906 1.6875-1.679688 1.6875h-25.890625c-.9375 0-1.691406-.761719-1.691406-1.6875v-25.890625c0-.941406.753906-1.691406 1.691406-1.691406h25.890625c.925782 0 1.679688.75 1.679688 1.691406zm0 0"/><path d="m414.808594 411.34375v25.898438c0 .929687-.753906 1.679687-1.679688 1.679687h-25.890625c-.9375 0-1.691406-.75-1.691406-1.679687v-25.898438c0-.929688.753906-1.683594 1.691406-1.683594h25.890625c.925782 0 1.679688.753906 1.679688 1.683594zm0 0"/><path d="m358.894531 411.34375v25.898438c0 .929687-.753906 1.679687-1.683593 1.679687h-25.898438c-.929688 0-1.679688-.75-1.679688-1.679687v-25.898438c0-.929688.75-1.683594 1.679688-1.683594h25.898438c.929687 0 1.683593.753906 1.683593 1.683594zm0 0"/></g><path d="m358.894531 352.964844v25.890625c0 .925781-.753906 1.6875-1.683593 1.6875h-25.898438c-.929688 0-1.679688-.761719-1.679688-1.6875v-25.890625c0-.941406.75-1.691406 1.679688-1.691406h25.898438c.929687 0 1.683593.75 1.683593 1.691406zm0 0" fill="#abeaf8"/><path d="m82.089844 411.34375v25.898438c0 .929687-.753906 1.679687-1.691406 1.679687h-25.890626c-.929687 0-1.679687-.75-1.679687-1.679687v-25.898438c0-.929688.75-1.683594 1.679687-1.683594h25.890626c.9375 0 1.691406.753906 1.691406 1.683594zm0 0" fill="#abeaf8"/><path d="m138.003906 411.34375v25.898438c0 .929687-.753906 1.679687-1.679687 1.679687h-25.902344c-.925781 0-1.679687-.75-1.679687-1.679687v-25.898438c0-.929688.753906-1.683594 1.679687-1.683594h25.902344c.925781 0 1.679687.753906 1.679687 1.683594zm0 0" fill="#3dcff3"/><path d="m138.003906 352.964844v25.890625c0 .925781-.753906 1.6875-1.679687 1.6875h-25.902344c-.925781 0-1.679687-.761719-1.679687-1.6875v-25.890625c0-.941406.753906-1.691406 1.679687-1.691406h25.902344c.925781 0 1.679687.75 1.679687 1.691406zm0 0" fill="#3dcff3"/><path d="m82.089844 352.964844v25.890625c0 .925781-.753906 1.6875-1.691406 1.6875h-25.890626c-.929687 0-1.679687-.761719-1.679687-1.6875v-25.890625c0-.941406.75-1.691406 1.679687-1.691406h25.890626c.9375 0 1.691406.75 1.691406 1.691406zm0 0" fill="#3dcff3"/><path d="m233.816406 0c-49.515625 0-89.660156 40.144531-89.660156 89.671875 0 43.472656 69.109375 104.546875 85.980469 118.808594 2.128906 1.796875 5.234375 1.796875 7.359375 0 16.871094-14.261719 85.980468-75.335938 85.980468-118.808594 0-49.527344-40.144531-89.671875-89.660156-89.671875zm.515625 143.867188c-30.777343 0-55.726562-24.953126-55.726562-55.726563 0-30.777344 24.949219-55.726563 55.726562-55.726563 30.777344 0 55.726563 24.949219 55.726563 55.726563s-24.949219 55.726563-55.726563 55.726563zm0 0" fill="#fed974"/><path d="m236.226562 143.820312c-.628906.019532-1.257812.046876-1.894531.046876-30.777343 0-55.726562-24.949219-55.726562-55.726563 0-30.402344 24.347656-55.097656 54.605469-55.699219 9.269531-11.167968 21.199218-20.050781 34.816406-25.675781-10.542969-4.355469-22.09375-6.765625-34.210938-6.765625-49.515625 0-89.660156 40.144531-89.660156 89.671875 0 43.472656 69.109375 104.546875 85.980469 118.808594 2.128906 1.796875 5.234375 1.796875 7.359375 0 5.734375-4.84375 17.496094-15.097657 30.53125-28.226563-10.617188-10.691406-22.070313-23.289062-31.800782-36.433594zm0 0" fill="#fcc53a"/><path d="m293.699219 72.261719v31.746093c0 1.585938-1.285157 2.867188-2.863281 2.867188h-37.765626v37.761719c0 1.589843-1.277343 2.867187-2.863281 2.867187h-31.746093c-1.589844 0-2.867188-1.277344-2.867188-2.867187v-37.761719h-37.765625c-1.574219 0-2.863281-1.28125-2.863281-2.867188v-31.746093c0-1.578125 1.289062-2.863281 2.863281-2.863281h37.765625v-37.757813c0-1.585937 1.277344-2.863281 2.867188-2.863281h31.746093c1.585938 0 2.863281 1.277344 2.863281 2.863281v37.757813h37.765626c1.578124 0 2.863281 1.285156 2.863281 2.863281zm0 0" fill="#f64446"/><path d="m263.242188 442.820312v69.179688h-58.851563v-69.179688c0-6.535156 5.296875-11.832031 11.832031-11.832031h35.1875c6.535156 0 11.832032 5.296875 11.832032 11.832031zm0 0" fill="#e7e7e7"/><path d="m277.160156 360.722656v22.214844c0 2.121094-1.722656 3.832031-3.835937 3.832031h-22.210938c-2.125 0-3.835937-1.710937-3.835937-3.832031v-22.214844c0-2.113281 1.710937-3.832031 3.835937-3.832031h22.210938c2.113281 0 3.835937 1.71875 3.835937 3.832031zm0 0" fill="#3dcff3"/><path d="m221.386719 360.722656v22.214844c0 2.121094-1.710938 3.832031-3.832031 3.832031h-22.214844c-2.113282 0-3.832032-1.710937-3.832032-3.832031v-22.214844c0-2.113281 1.71875-3.832031 3.832032-3.832031h22.214844c2.121093 0 3.832031 1.71875 3.832031 3.832031zm0 0" fill="#abeaf8"/><path d="m221.386719 302.800781v22.210938c0 2.113281-1.710938 3.832031-3.832031 3.832031h-22.214844c-2.113282 0-3.832032-1.71875-3.832032-3.832031v-22.210938c0-2.125 1.71875-3.835937 3.832032-3.835937h22.214844c2.121093 0 3.832031 1.710937 3.832031 3.835937zm0 0" fill="#3dcff3"/><path d="m277.160156 302.800781v22.210938c0 2.113281-1.722656 3.832031-3.835937 3.832031h-22.210938c-2.125 0-3.835937-1.71875-3.835937-3.832031v-22.210938c0-2.125 1.710937-3.835937 3.835937-3.835937h22.210938c2.113281 0 3.835937 1.710937 3.835937 3.835937zm0 0" fill="#abeaf8"/><path d="m277.160156 244.863281v22.222657c0 2.113281-1.722656 3.824218-3.835937 3.824218h-22.210938c-2.125 0-3.835937-1.710937-3.835937-3.824218v-22.222657c0-2.113281 1.710937-3.824219 3.835937-3.824219h22.210938c2.113281 0 3.835937 1.710938 3.835937 3.824219zm0 0" fill="#3dcff3"/><path d="m221.386719 244.863281v22.222657c0 2.113281-1.710938 3.824218-3.832031 3.824218h-22.214844c-2.113282 0-3.832032-1.710937-3.832032-3.824218v-22.222657c0-2.113281 1.71875-3.824219 3.832032-3.824219h22.214844c2.121093 0 3.832031 1.710938 3.832031 3.824219zm0 0" fill="#abeaf8"/><path d="m250.972656 471.492188c0 4.222656-3.421875 7.644531-7.644531 7.644531s-7.644531-3.421875-7.644531-7.644531c0-4.222657 3.421875-7.644532 7.644531-7.644532s7.644531 3.421875 7.644531 7.644532zm0 0" fill="#dbdbdb"/></svg>