<svg height="512" viewBox="0 0 512 512" width="512" xmlns="http://www.w3.org/2000/svg"><g id="flat"><rect fill="#ea9d2d" height="416" rx="24" width="320" x="56" y="72"/><path d="m88 104h256v352h-256z" fill="#eaeae8"/><path d="m152 152h128v120h-128z" fill="#fbb540"/><path d="m200 152h32v32h-32z" fill="#e82f3e"/><path d="m248 224h-32a8 8 0 0 1 0-16h32a8 8 0 0 1 0 16z" fill="#ea9d2d"/><path d="m232 248h-16a8 8 0 0 1 0-16h16a8 8 0 0 1 0 16z" fill="#ea9d2d"/><g fill="#cbcbcb"><path d="m144 328h-24a8 8 0 0 1 0-16h24a8 8 0 0 1 0 16z"/><path d="m200 360h-80a8 8 0 0 1 0-16h80a8 8 0 0 1 0 16z"/><path d="m144 392h-24a8 8 0 0 1 0-16h24a8 8 0 0 1 0 16z"/><path d="m200 392h-24a8 8 0 0 1 0-16h24a8 8 0 0 1 0 16z"/><path d="m272 328h-24a8 8 0 0 1 0-16h24a8 8 0 0 1 0 16z"/><path d="m288 360h-40a8 8 0 0 1 0-16h40a8 8 0 0 1 0 16z"/></g><path d="m248 64v-8a32 32 0 0 0 -64 0v8h-32v32a24 24 0 0 0 24 24h80a24 24 0 0 0 24-24v-32zm-32 2a10 10 0 1 1 10-10 10 10 0 0 1 -10 10z" fill="#0bafea"/><circle cx="368" cy="400" fill="#2cbff4" r="88"/><circle cx="368" cy="360" fill="#c4f8ff" r="16"/><path d="m352 400h32v56h-32z" fill="#c4f8ff"/></g></svg>