<svg id="Capa_1" enable-background="new 0 0 512 512" height="512" viewBox="0 0 512 512" width="512" xmlns="http://www.w3.org/2000/svg"><g><g><g><g><g><g><circle cx="256" cy="256" fill="#f1cc30" r="256"/></g></g></g></g></g><path d="m512 256c0-12.014-.828-23.835-2.429-35.408l-88.014-88.014-.909-.909-327.967 250.056 127.835 127.835c11.598 1.608 23.444 2.44 35.484 2.44 141.385 0 256-114.615 256-256z" fill="#e9a226"/><g><path d="m387.875 396.755h-261.932c-24.494 0-44.351-19.856-44.351-44.351v-190.99c0-24.494 19.856-44.351 44.351-44.351h261.932c24.494 0 44.351 19.856 44.351 44.351v190.991c-.001 24.494-19.857 44.35-44.351 44.35z" fill="#656977"/></g><g><path d="m387.875 396.755h-261.932c-24.494 0-44.351-19.856-44.351-44.351v-190.99c0-24.494 19.856-44.351 44.351-44.351h261.932c24.494 0 44.351 19.856 44.351 44.351v190.991c-.001 24.494-19.857 44.35-44.351 44.35z" fill="#656977"/></g><g><path d="m125.943 117.063c-24.494 0-44.351 19.856-44.351 44.351v190.991c0 24.494 19.856 44.351 44.351 44.351h130.966v-279.693z" fill="#656977"/><path d="m387.875 117.063h-130.966v279.692h130.966c24.494 0 44.351-19.856 44.351-44.351v-190.991c-.001-24.494-19.857-44.35-44.351-44.35z" fill="#464b52"/></g><g><path d="m117.706 156.418h275.098v145.747h-275.098z" fill="#95e0db"/></g><g><path d="m256.909 156.418h135.895v145.747h-135.895z" fill="#70c7c7"/></g><g><g><circle cx="212.992" cy="346.075" fill="#e9ecf4" r="23.375"/></g><g><circle cx="300.827" cy="346.075" fill="#cdd1e0" r="23.375"/></g></g><g><g><path d="m369.411 207.915-25.455-25.456-104.823 104.823h50.912z" fill="#e06a24"/></g></g><g><g><path d="m369.411 207.915-25.455-25.456-87.047 87.046v17.777h33.136z" fill="#d24611"/></g></g></g></svg>