<svg id="Capa_1" enable-background="new 0 0 511.996 511.996" height="512" viewBox="0 0 511.996 511.996" width="512" xmlns="http://www.w3.org/2000/svg"><g><g><path d="m256.813 511.996h-89.42l-19.216-10.435-19.214 10.435h-89.42c2.313-24.934 5.473-47.447 7.402-60.165 1.093-7.147 5.296-13.466 11.497-17.187 11.812-7.078 24.284-12.689 36.048-17.089 21.735-8.16 41.058-12.187 49.366-13.683 2.864-.522 5.778-.522 8.643 0 8.308 1.496 27.631 5.522 49.366 13.683 11.763 4.4 24.235 10.011 36.048 17.089 6.201 3.721 10.405 10.041 11.497 17.187 1.93 12.718 5.09 35.231 7.403 60.165z" fill="#f9f6f9"/><path d="m167.393 511.996h-38.43c1.418-10.936 3.898-23.152 8.19-32.602l11.024-7.447 11.026 7.447c4.292 9.45 6.772 21.666 8.19 32.602z" fill="#dd636e"/><path d="m121.473 460.839 15.676 18.56h11.03 11.029l15.676-18.56v-39.096h-61.876" fill="#cb5769"/><path d="m77.825 424.476c-4.794 4.026-8.052 10.789-8.899 18.427-1.585 14.431-4.243 40.546-6.074 69.093h-23.31c2.313-24.934 5.473-47.447 7.402-60.165 1.093-7.147 5.296-13.466 11.497-17.187 6.341-3.8 12.877-7.176 19.384-10.168z" fill="#dddaec"/><path d="m201.866 417.555-18.516 51.424-35.172-33.813-35.172 33.813-18.516-51.424c21.735-8.16 41.058-12.187 49.366-13.683 2.864-.522 5.778-.522 8.643 0 8.309 1.496 27.632 5.522 49.367 13.683z" fill="#dddaec"/><path d="m174.881 363.87v44.594c0 14.744-11.956 26.7-26.7 26.7-14.752 0-26.708-11.956-26.708-26.7v-44.594z" fill="#ffddce"/><path d="m156.901 433.708c-2.732.94-5.665 1.454-8.718 1.454-14.752 0-26.708-11.956-26.708-26.7v-44.594h17.436v44.594c0 11.699 7.52 21.638 17.99 25.246z" fill="#ffcbbe"/><path d="m36.626 326.738c-19.253 0-34.86-15.607-34.86-34.86 0-2.65.296-5.23.856-7.711 4.522-20.028 34.004-16.743 34.004 3.789h223.104c0-20.533 29.482-23.817 34.004-3.789.56 2.48.856 5.061.856 7.711 0 19.253-15.607 34.86-34.86 34.86" fill="#ffcbbe"/><path d="m36.633 308.521c-2.387 0-4.736-1.12-6.218-3.213-.138-.186-4.773-6.322-9.05-4.594-3.899 1.572-8.333-.313-9.907-4.211-1.572-3.898.313-8.333 4.211-9.906 6.603-2.664 13.758-1.614 20.147 2.953 4.199 3.002 6.772 6.602 7.052 7.002 2.406 3.447 1.561 8.192-1.886 10.598-1.326.927-2.845 1.371-4.349 1.371z" fill="#eaac9d"/><path d="m259.724 308.552c-1.508 0-3.033-.448-4.366-1.378-3.447-2.406-4.275-7.174-1.869-10.621.279-.401 2.853-4.001 7.053-7.002 6.389-4.568 13.546-5.616 20.146-2.953 3.899 1.573 5.784 6.008 4.211 9.906-1.573 3.897-6.009 5.784-9.906 4.211-4.321-1.745-9.008 4.534-9.053 4.597-1.475 2.114-3.825 3.24-6.216 3.24z" fill="#eaac9d"/><path d="m121.473 363.87h53.408v41.082h-53.408z" fill="#ffcbbe"/><path d="m178.426 390.817h-60.494c-44.904 0-81.305-36.402-81.305-81.305v-114.67l145.89-37.574 77.215 37.574v114.669c-.001 44.904-36.403 81.306-81.306 81.306z" fill="#ffddce"/><path d="m171.339 390.817h-53.408c-44.904 0-81.305-36.401-81.305-81.305v-114.674h53.408v114.674c0 44.899 36.398 81.305 81.305 81.305z" fill="#ffcbbe"/><g fill="#2b4d66"><path d="m95.871 254.838c-5.817 0-10.55 7.85-10.55 17.498 0 9.649 4.732 17.499 10.55 17.499s10.55-7.85 10.55-17.499c0-9.648-4.733-17.498-10.55-17.498z"/><path d="m200.486 254.838c-5.817 0-10.55 7.85-10.55 17.498 0 9.649 4.733 17.499 10.55 17.499s10.55-7.85 10.55-17.499c0-9.648-4.732-17.498-10.55-17.498z"/></g><path d="m268.783 196.692v54.259l-129.592-65.854 16.331 34.01-85.956-24.177-17.463 47.722c-.916 2.49-2.549 4.567-4.626 6.015-2.077 1.457-4.597 2.284-7.255 2.284-6.989 0-12.649-5.66-12.649-12.649v-102.454c0-18.546 19.648-30.496 36.117-21.961l10.897 5.64 88.318-13.624c55.666-8.593 105.878 34.463 105.878 90.789z" fill="#365e7d"/><path d="m148.179 345.893c-7.684 0-14.908-2.992-20.341-8.426-2.973-2.973-2.973-7.792 0-10.764s7.792-2.972 10.764 0c2.558 2.558 5.959 3.967 9.577 3.967 3.617 0 7.019-1.409 9.577-3.967 2.973-2.972 7.792-2.972 10.764 0 2.973 2.973 2.973 7.792 0 10.764-5.433 5.433-12.657 8.426-20.341 8.426z" fill="#dd636e"/><path d="m74.585 119.526 24.481-3.78c-6.133 4.38-10.316 11.537-10.316 20.101v64.476l-19.185-5.394-17.463 47.722c-.906 2.49-2.549 4.567-4.626 6.014-2.087 1.457-4.597 2.284-7.255 2.284-6.989 0-12.649-5.66-12.649-12.649v-102.453c0-18.546 19.648-30.496 36.107-21.961z" fill="#2b4d66"/></g><g><circle cx="377.711" cy="132.518" fill="#d3effb" r="124.907"/><path d="m399.536 255.615c-6.917 1.199-14.035 1.814-21.29 1.814-68.985 0-124.911-55.926-124.911-124.911s55.926-124.911 124.911-124.911c7.256 0 14.374.615 21.29 1.814-58.833 10.099-103.61 61.368-103.61 123.097s44.777 112.998 103.61 123.097z" fill="#9dc6fb"/><path d="m377.711 148.43h-58.031c-8.788 0-15.912-7.124-15.912-15.912s7.124-15.912 15.912-15.912h58.031c8.788 0 0 7.124 0 15.912z" fill="#365e7d"/><path d="m377.711 148.43c-8.788 0-15.912-7.124-15.912-15.912v-40.63c0-8.788 7.124-15.912 15.912-15.912s15.912 7.124 15.912 15.912v40.63c0 8.788-7.124 15.912-15.912 15.912z" fill="#2b4d66"/><g fill="#365e7d"><g><path d="m377.711 44.341c-4.204 0-7.612-3.408-7.612-7.611v-25.18c0-4.204 3.407-7.611 7.612-7.611s7.611 3.408 7.611 7.611v25.18c.001 4.203-3.406 7.611-7.611 7.611z"/><path d="m377.711 261.099c-4.204 0-7.612-3.408-7.612-7.611v-25.18c0-4.204 3.407-7.611 7.612-7.611s7.611 3.408 7.611 7.611v25.18c.001 4.203-3.406 7.611-7.611 7.611z"/></g><g><path d="m498.68 140.13h-25.18c-4.204 0-7.611-3.408-7.611-7.611 0-4.204 3.407-7.611 7.611-7.611h25.18c4.204 0 7.611 3.408 7.611 7.611s-3.407 7.611-7.611 7.611z"/><path d="m281.923 140.13h-25.18c-4.204 0-7.611-3.408-7.611-7.611 0-4.204 3.408-7.611 7.611-7.611h25.18c4.204 0 7.611 3.408 7.611 7.611s-3.407 7.611-7.611 7.611z"/></g><g><path d="m469.608 87.078c-2.63 0-5.189-1.365-6.599-3.807-2.102-3.64-.854-8.296 2.786-10.397l12.872-7.431c3.638-2.101 8.296-.855 10.397 2.786 2.102 3.64.854 8.296-2.786 10.397l-12.872 7.431c-1.197.692-2.506 1.021-3.798 1.021z"/><path d="m272.956 200.615c-2.63 0-5.188-1.365-6.599-3.807-2.102-3.64-.854-8.296 2.786-10.397l12.871-7.431c3.639-2.101 8.294-.855 10.397 2.786 2.102 3.64.854 8.296-2.786 10.397l-12.871 7.431c-1.197.692-2.506 1.021-3.798 1.021z"/></g><g><path d="m430.757 48.24c-1.291 0-2.601-.329-3.799-1.021-3.64-2.102-4.888-6.757-2.786-10.398l7.432-12.872c2.102-3.641 6.757-4.887 10.397-2.786 3.64 2.102 4.888 6.757 2.786 10.398l-7.432 12.872c-1.41 2.442-3.968 3.807-6.598 3.807z"/><path d="m317.22 244.893c-1.291 0-2.6-.329-3.799-1.021-3.64-2.102-4.888-6.757-2.786-10.397l7.431-12.871c2.101-3.641 6.755-4.889 10.397-2.786 3.64 2.102 4.888 6.757 2.786 10.397l-7.431 12.871c-1.409 2.442-3.968 3.807-6.598 3.807z"/></g><g><path d="m324.665 48.24c-2.63 0-5.189-1.365-6.599-3.807l-7.431-12.872c-2.102-3.64-.854-8.296 2.786-10.397 3.639-2.101 8.296-.855 10.397 2.786l7.431 12.872c2.102 3.64.854 8.296-2.786 10.397-1.198.692-2.507 1.021-3.798 1.021z"/><path d="m438.203 244.893c-2.63 0-5.188-1.365-6.599-3.807l-7.432-12.871c-2.102-3.64-.855-8.296 2.786-10.398 3.639-2.102 8.294-.855 10.397 2.786l7.432 12.871c2.102 3.64.855 8.296-2.786 10.398-1.197.692-2.507 1.021-3.798 1.021z"/></g><g><path d="m285.814 87.078c-1.291 0-2.601-.329-3.799-1.021l-12.871-7.431c-3.64-2.102-4.888-6.757-2.786-10.397 2.101-3.641 6.758-4.889 10.397-2.786l12.871 7.431c3.64 2.102 4.888 6.757 2.786 10.397-1.409 2.442-3.968 3.807-6.598 3.807z"/><path d="m482.467 200.615c-1.291 0-2.6-.329-3.799-1.021l-12.872-7.431c-3.64-2.102-4.888-6.757-2.786-10.397 2.101-3.641 6.755-4.889 10.397-2.786l12.872 7.431c3.64 2.102 4.888 6.757 2.786 10.397-1.409 2.442-3.968 3.807-6.598 3.807z"/></g></g><path d="m377.711 265.036c-73.071 0-132.518-59.447-132.518-132.518s59.447-132.518 132.518-132.518 132.519 59.447 132.519 132.518-59.447 132.518-132.519 132.518zm0-249.813c-64.677 0-117.295 52.618-117.295 117.295s52.618 117.295 117.295 117.295 117.295-52.618 117.295-117.295c.001-64.677-52.618-117.295-117.295-117.295z" fill="#dd636e"/></g></g></svg>