<svg id="Layer_1" enable-background="new 0 0 497 497" height="512" viewBox="0 0 497 497" width="512" xmlns="http://www.w3.org/2000/svg"><g><g><g><path d="m39.978 444.818 295.441 19.76c5.511.369 10.277-3.8 10.645-9.31l28.394-424.517c.369-5.511-3.8-10.276-9.31-10.645l-295.442-19.761c-5.511-.369-10.276 3.8-10.645 9.31l-28.394 424.517c-.368 5.511 3.8 10.277 9.311 10.646z" fill="#fae19e"/></g><g><g><g><g><g><path d="m10 496.678h226.14l79.96-79.605v-355.861c0-5.523-4.477-10-10-10h-296.1c-5.523 0-10 4.477-10 10v425.466c0 5.523 4.477 10 10 10z" fill="#fff9e9"/></g><path d="m306.101 51.212h-40c5.523 0 10 4.477 10 10v355.861l-.258 40.078 40.258-40.078v-355.861c0-5.523-4.477-10-10-10z" fill="#fff4d6"/><g fill="#fae19e"><path d="m260.327 229.547h-204.553c-4.142 0-7.5 3.358-7.5 7.5s3.358 7.5 7.5 7.5h204.553c4.143 0 7.5-3.358 7.5-7.5s-3.357-7.5-7.5-7.5z"/><path d="m260.327 281.832h-204.553c-4.142 0-7.5 3.358-7.5 7.5s3.358 7.5 7.5 7.5h204.553c4.143 0 7.5-3.358 7.5-7.5s-3.357-7.5-7.5-7.5z"/><path d="m55.774 192.262h204.553c4.143 0 7.5-3.358 7.5-7.5s-3.357-7.5-7.5-7.5h-204.553c-4.142 0-7.5 3.358-7.5 7.5s3.358 7.5 7.5 7.5z"/><path d="m91.807 139.977h132.487c4.142 0 7.5-3.358 7.5-7.5s-3.358-7.5-7.5-7.5h-132.487c-4.142 0-7.5 3.358-7.5 7.5s3.358 7.5 7.5 7.5z"/></g><path d="m187.255 431.287c-13.489.036-49.534.103-54.068.103-6.937 0-13.783-2.021-15.59-10.679-1.556-7.64-12.364-6.613-14.464 0-5.061 15.93-13.869 9.719-18.582-1.053-4.797-10.963-6.027-23.233-8.122-34.9-1.54-8.573-14.506-6.17-14.732 1.994-.298 10.751-1.302 21.331-4.031 31.758-2.815 10.758-7.034 21.097-11.222 31.376-3.651 8.961 10.867 12.816 14.464 3.988 3.711-9.108 7.427-18.266 10.193-27.714 7.1 17.073 23.714 28.315 38.689 11.848 7.976 9.217 19.59 8.388 30.584 8.375 15.627-.02 31.254-.054 46.881-.095 9.651-.026 9.669-15.026 0-15.001z" fill="#54b1ff"/></g></g></g><path d="m236.14 496.678v-70.253c0-5.523 4.477-10 10-10h69.96z" fill="#ffeec2"/></g></g><g><path d="m461.136 241.08-33.372.165v-50.825c0-9.183 7.463-16.662 16.673-16.708h.007c9.217-.046 16.693 7.371 16.693 16.562v50.806z" fill="#fed23a"/><path d="m444.46 496.678c-10.362-10.277-16.196-24.263-16.208-38.857l-.062-73.973c0-.644.524-1.169 1.171-1.173l30.038-.149c.647-.003 1.171.517 1.171 1.161l.062 74.079c.012 14.531-5.749 28.472-16.015 38.756z" fill="#54b1ff"/><path d="m444.459 461.833h-.01c-14.434.072-26.14-11.542-26.14-25.935v-213.527c0-6.778 5.477-12.283 12.255-12.316l27.626-.137c6.826-.034 12.378 5.49 12.378 12.316v213.436c0 14.38-11.687 26.092-26.109 26.163z" fill="#fdf385"/><path d="m458.19 209.918-23.769.118c6.037.79 10.708 5.94 10.708 12.198v213.436c0 9.823-5.455 18.397-13.507 22.87 3.79 2.115 8.164 3.317 12.826 3.293h.01c14.422-.072 26.109-11.783 26.109-26.163v-213.436c.001-6.826-5.551-12.35-12.377-12.316z" fill="#faee6e"/><path d="m483.774 240.425-71.615.355c-7.305.036-13.226 5.968-13.226 13.248 0 7.281 5.921 13.153 13.226 13.117l58.389-.29v77.489c0 7.281 5.921 13.153 13.226 13.117 7.305-.036 13.226-5.968 13.226-13.248v-90.672c0-7.279-5.922-13.152-13.226-13.116z" fill="#54b1ff"/><g><path d="m483.774 240.425-38.441.188-.167 26.311 25.381-.067v77.489c0 7.281 5.921 13.153 13.226 13.117 7.305-.036 13.226-5.968 13.226-13.248v-90.672c.001-7.281-5.921-13.154-13.225-13.118z" fill="#3da7ff"/></g></g></g></svg>