<svg height="512" viewBox="0 0 512 512" width="512" xmlns="http://www.w3.org/2000/svg"><g id="Flat"><path d="m352 432h48v64h-48z" fill="#f8caa8"/><path d="m112 432h48v64h-48z" fill="#f8caa8"/><path d="m338.54 297.03a80.012 80.012 0 0 1 66.95 73.06l5.77 77.91h-59.26v48h-192v-48h-59.26l5.77-77.91a80.012 80.012 0 0 1 66.95-73.06z" fill="#0093b9"/><path d="m312 310.04-28.17 33.18-27.83 32.78-27.83-32.78-28.17-33.18z" fill="#f8caa8"/><path d="m312 310.04-28.17 33.18a103.142 103.142 0 0 1 -12.71.78h-30.24a103.142 103.142 0 0 1 -12.71-.78l-28.17-33.18z" fill="#e99180"/><path d="m200 310.036v57.964l56 8z" fill="#5db9d2"/><path d="m312 310.036v57.964l-56 8z" fill="#5db9d2"/><path d="m352 192h16a24 24 0 0 1 24 24 24 24 0 0 1 -24 24h-16a0 0 0 0 1 0 0v-48a0 0 0 0 1 0 0z" fill="#e99180"/><path d="m120 192h16a24 24 0 0 1 24 24 24 24 0 0 1 -24 24h-16a0 0 0 0 1 0 0v-48a0 0 0 0 1 0 0z" fill="#e99180" transform="matrix(-1 0 0 -1 280 432)"/><path d="m360 144v95.122a88.876 88.876 0 0 1 -21.4 57.841 88.878 88.878 0 0 1 -67.478 31.037h-30.244a88.878 88.878 0 0 1 -67.478-31.037 88.876 88.876 0 0 1 -21.4-57.841v-95.122z" fill="#f8caa8"/><g fill="#a3783b"><path d="m256 256h-8a8 8 0 0 1 0-16h8v-32a16.019 16.019 0 0 1 16-16h40a8 8 0 0 1 0 16h-40v32a16.019 16.019 0 0 1 -16 16z"/><path d="m232 208h-32a8 8 0 0 1 0-16h32a8 8 0 0 1 0 16z"/><path d="m264 304h-16a8 8 0 0 1 0-16h16a8 8 0 0 1 0 16z"/><circle cx="216" cy="224" r="8"/><circle cx="296" cy="224" r="8"/></g><path d="m336 67.6a87.7 87.7 0 0 1 24 60.4v8h-208v-8a87.7 87.7 0 0 1 24-60.4l29.3-20.495a87.716 87.716 0 0 1 34.7-7.105h32a87.73 87.73 0 0 1 34.254 6.915z" fill="#f7aa23"/><path d="m136 128h240v32h-240z" fill="#fbbe1f"/><path d="m256 24a16 16 0 0 1 16 16v40a0 0 0 0 1 0 0h-32a0 0 0 0 1 0 0v-40a16 16 0 0 1 16-16z" fill="#fbbe1f"/><path d="m192 40a16 16 0 0 1 16 16v40a0 0 0 0 1 0 0h-32a0 0 0 0 1 0 0v-40a16 16 0 0 1 16-16z" fill="#fbbe1f"/><path d="m320 40a16 16 0 0 1 16 16v40a0 0 0 0 1 0 0h-32a0 0 0 0 1 0 0v-40a16 16 0 0 1 16-16z" fill="#fbbe1f"/><path d="m248 376h16v120h-16z" fill="#067a98"/><path d="m152 400h16v96h-16z" fill="#067a98"/><path d="m280 400h16v16h-16z" fill="#067a98"/><path d="m280 432h16v16h-16z" fill="#067a98"/><path d="m280 464h16v16h-16z" fill="#067a98"/><path d="m152 160h208v16h-208z" fill="#e99180"/><path d="m344 400h16v96h-16z" fill="#067a98"/></g></svg>